<?xml version="1.0" encoding="utf-8"?>
<!-- Generator: Adobe Illustrator 23.0.0, SVG Export Plug-In . SVG Version: 6.00 Build 0)  -->
<svg version="1.1" id="Camada_1" xmlns="http://www.w3.org/2000/svg" xmlns:xlink="http://www.w3.org/1999/xlink" x="0px" y="0px"
	 viewBox="0 0 2000 2000" style="enable-background:new 0 0 2000 2000;" xml:space="preserve">
<style type="text/css">
	.st0{fill:#4A0072;}
	.st1{fill:#FFFFFF;}
</style>
<g>
	<circle class="st0" cx="1000" cy="1000" r="1000"/>
</g>
<g>
	<g transform="translate(0.000000,1279.000000) scale(0.100000,-0.100000)">
		<path class="st1" d="M15384.34,8775.53c-350-75.07-814.49-414.75-1726.56-1263.96c-161.4-151.07-174.53-163.27-740.36-704.7
			c-230.83-222.39-426.01-404.43-432.58-406.31c-12.2-2.81-2324.29,297.46-2329.92,302.15c-0.94,1.88,72.25,97.59,163.27,213.01
			c91.96,115.42,178.29,228.96,193.3,252.42c88.21,143.57,64.75,355.63-54.42,473.87c-143.57,143.57-379.09,101.34-591.16-106.03
			c-31.9-30.97-185.79-204.56-341.56-386.6c-155.77-181.1-288.07-331.24-294.64-334.05c-10.32-3.75-1543.58,274.94-1551.09,281.5
			c-1.88,1.88,81.64,100.4,184.85,220.51c103.22,120.11,195.18,230.83,203.62,247.72c37.53,72.25,10.32,215.82-60.05,323.73
			c-115.42,174.53-303.09,218.64-464.48,106.97c-22.52-15.01-213.01-196.11-424.13-401.61
			c-356.57-348.13-384.72-374.4-412.87-371.59c-15.95,1.88-368.77,49.73-784.46,106.97c-727.22,99.47-760.06,103.22-877.36,98.53
			c-194.24-8.45-345.31-55.36-464.48-146.38c-46.92-34.72-553.63-559.26-553.63-572.39c0-2.81,121.05-46.92,270.24-98.53
			c1823.21-624.94,3538.51-1302.43,4271.36-1687.15c592.1-310.59,988.08-629.63,1161.68-936.47
			c15.95-29.09,42.23-91.96,59.12-140.75c28.15-84.45,29.09-94.77,25.34-197.05c-3.75-99.47-7.51-115.42-44.1-208.31
			c-78.82-199.87-213.94-380.97-578.02-772.26c-81.64-87.27-551.75-560.19-1045.32-1050.95l-896.12-891.43l-79.76,2.82
			c-295.58,9.38-2013.7,216.76-2306.46,277.75l-63.81,14.08L4720,962.84c-386.6-279.63-717.84-526.41-717.84-533.92
			c0-4.69,479.5-278.69,1065.03-608.99c585.53-331.24,1067.84-604.3,1071.59-608.05c4.69-3.75-68.5-124.8-160.46-268.37
			c-92.9-144.51-167.03-263.68-166.09-265.55c1.88-0.94,130.43,57.24,287.13,129.49c155.77,73.19,288.07,130.43,292.77,129.49
			c4.69-1.88,274.94-475.74,598.67-1052.83c324.67-578.02,594.91-1054.7,599.6-1059.4c15.01-15.01,516.09,667.17,581.78,791.97
			l22.52,43.16l-58.18,416.63c-101.34,730.97-122.92,887.68-165.15,1228.3c-50.67,408.18-73.19,628.69-68.5,685.93l2.82,43.16
			l974.94,937.41c541.43,520.78,1012.48,966.5,1060.33,1003.09c289.01,220.51,757.25,490.76,976.82,563.95
			c130.43,43.16,318.1,44.1,477.62,3.75c94.77-24.4,244.91-97.59,324.67-158.58c144.51-109.79,292.76-296.52,379.09-479.5
			c23.46-48.79,76.01-183.92,116.36-300.27c41.29-116.36,437.27-1232.99,879.23-2481.93
			c442.9-1248.94,809.79-2284.88,815.42-2300.83l10.32-30.97l243.97,211.13c303.09,262.74,331.24,292.76,389.42,412.87
			c69.44,143.57,79.76,195.18,78.82,389.41c0,157.64-1.88,175.47-53.49,459.79c-67.56,372.52-170.78,997.46-185.79,1124.14
			l-11.26,96.65l365.96,367.83c291.83,293.7,376.28,384.72,420.38,450.41c135.12,205.5,144.51,403.49,25.33,515.15
			c-63.81,60.05-113.54,76.94-214.88,71.31c-64.75-2.82-93.83-9.38-137-30.03c-29.09-14.08-155.77-104.16-280.57-199.87
			c-124.8-95.71-231.77-175.47-238.34-178.29s-15.95,27.21-27.21,88.2c-8.45,50.67-72.25,403.49-140.75,783.52l-124.8,691.56
			l80.7,78.82c45.04,43.16,201.75,191.42,349.07,329.36c280.57,263.68,346.25,333.11,399.74,420.38
			c60.99,100.4,85.39,213.01,64.75,307.78c-15.95,76.94-89.14,162.33-171.72,198.93c-64.75,29.09-177.35,29.09-242.09,0
			c-30.03-14.08-145.44-102.28-304.96-236.46c-141.69-117.29-259.92-211.13-262.74-208.31c-3.75,5.63-322.79,2300.83-330.3,2381.53
			c-0.94,14.08,105.09,129.49,382.85,417.56c623.06,642.77,915.83,954.3,1169.18,1242.37c510.46,579.9,761.94,958.99,819.18,1236.74
			c37.53,181.1,0,311.53-124.8,431.64C15726.83,8771.78,15569.19,8815.88,15384.34,8775.53z"/>
	</g>
</g>
</svg>
