<?xml version="1.0" encoding="utf-8"?>
<!-- Generator: Adobe Illustrator 23.0.0, SVG Export Plug-In . SVG Version: 6.00 Build 0)  -->
<svg version="1.1" id="Camada_1" xmlns="http://www.w3.org/2000/svg" xmlns:xlink="http://www.w3.org/1999/xlink" x="0px" y="0px"
	 viewBox="0 0 2000 1000" style="enable-background:new 0 0 2000 1000;" xml:space="preserve">
<style type="text/css">
	.st0{fill:#7B1FA2;}
	.st1{fill:#4A0072;}
</style>
<g>
	<path class="st0" d="M1894.2,250H505.9c-58.4,0-105.8,33.9-105.8,75.6v348.9c0,41.7,47.4,75.6,105.8,75.6h1388.4
		c58.4,0,105.8-33.9,105.7-75.6V325.6C2000,283.9,1952.6,250,1894.2,250z M1900,604.6c0.1,25.1-41.4,45.4-92.5,45.4H592.7
		c-51.1,0-92.6-20.3-92.6-45.3V395.3c0-25,41.5-45.3,92.6-45.3h1214.8c51.1,0,92.6,20.3,92.6,45.3V604.6z"/>
</g>
<circle class="st1" cx="500" cy="500" r="500"/>
</svg>
