<?xml version="1.0" encoding="utf-8"?>
<!-- Generator: Adobe Illustrator 23.0.0, SVG Export Plug-In . SVG Version: 6.00 Build 0)  -->
<svg version="1.1" id="Camada_1" xmlns="http://www.w3.org/2000/svg" xmlns:xlink="http://www.w3.org/1999/xlink" x="0px" y="0px"
	 viewBox="0 0 2000 2000" style="enable-background:new 0 0 2000 2000;" xml:space="preserve">
<style type="text/css">
	.st0{fill:#4A0072;}
</style>
<g>
	<path class="st0" d="M1429.39,1257.86h-90.34l-32.02-30.87c137.42-159.85,207.78-378.17,168.91-610.67
		C1422.75,298.18,1157.08,44.83,836.91,5.73C353-53.36-53.36,353,5.73,836.91c39.1,320.17,292.45,585.84,610.59,639.03
		c232.5,38.87,450.81-31.49,610.67-168.91l30.87,32.02v90.34L1829.62,2000L2000,1829.62L1429.39,1257.86z M719.62,1277.58
		c-284.73,0-514.58-229.85-514.58-514.58s229.85-514.58,514.58-514.58S1234.2,478.26,1234.2,763S1004.36,1277.58,719.62,1277.58z"/>
</g>
</svg>
