<?xml version="1.0" encoding="utf-8"?>
<!-- Generator: Adobe Illustrator 23.0.0, SVG Export Plug-In . SVG Version: 6.00 Build 0)  -->
<svg version="1.1" id="Camada_1" xmlns="http://www.w3.org/2000/svg" xmlns:xlink="http://www.w3.org/1999/xlink" x="0px" y="0px"
	 viewBox="0 0 2000 2000" style="enable-background:new 0 0 2000 2000;" xml:space="preserve">
<style type="text/css">
	.st0{fill:#4A0072;}
	.st1{fill:#FFFFFF;}
</style>
<g>
	<circle class="st0" cx="1000" cy="1000" r="1000"/>
</g>
<g>
	<path class="st1" d="M587.51,1600c-11.67-5.73-24.24-10.14-34.82-17.45c-26.08-18.04-38.69-44.02-40.11-75.55
		c-0.12-2.73-0.07-5.47-0.07-8.2c0-332.72,0.02-665.43-0.03-998.15c-0.01-40.55,15.77-72.38,52.9-90.25
		c13.22-6.36,29.15-9.9,43.85-9.93c260.47-0.58,520.94-0.55,781.41-0.32c56.35,0.05,96.7,40.48,96.73,96.88
		c0.19,335.45,0.18,670.9,0,1006.35c-0.03,48.92-30.12,84.92-77.31,94.51c-0.87,0.18-1.53,1.38-2.28,2.11
		C1134.36,1600,860.94,1600,587.51,1600z M550.01,998.85c0,165.58,0,331.16,0,496.74c0,45.48,21.23,66.91,66.3,66.91
		c255.79,0,511.58,0,767.36,0c44.65,0,66.3-21.45,66.3-65.74c0-331.16,0-662.31,0-993.47c0-44.28-21.64-65.74-66.29-65.74
		c-255.79,0-511.58,0-767.36,0c-45.07,0-66.3,21.43-66.3,66.91C550.01,669.26,550.01,834.06,550.01,998.85z"/>
	<path class="st1" d="M698.87,691.91c16.79-16.72,31.92-31.8,48.29-48.11c-14.83,0-28.64,0.09-42.45-0.03
		c-14.79-0.13-23.43-7.22-23.32-18.88c0.11-11.6,8.74-18.52,23.62-18.59c24.21-0.1,48.43,0.28,72.63-0.29
		c4.76-0.11,10.32-2.64,13.99-5.81c8.83-7.65,16.52-16.6,25.11-24.55c9.27-8.59,19.48-8.9,27.26-1.57
		c8.11,7.64,8.27,18.74-0.97,28.07c-42.6,42.99-85.39,85.8-128.4,128.39c-9.95,9.85-19.41,9.37-29.81-0.52
		c-6.96-6.62-13.28-13.91-21.65-22.77c0,17.95,0,32.88,0,48.43c36.89,0,73.77,0,111.84,0c0-11.22-0.16-22.42,0.04-33.61
		c0.25-13.68,7.82-22.17,19.12-21.89c10.83,0.26,18.11,8.54,18.29,21.54c0.24,16.79,0.26,33.59,0,50.37
		c-0.22,14.5-7.21,21.59-21.77,21.65c-48.03,0.18-96.07,0.19-144.1-0.01c-14.41-0.06-21.42-7.28-21.52-21.88
		c-0.21-30.07-0.37-60.14,0.13-90.2c0.13-8.1-2.25-13.69-7.87-19.41c-4.68-4.77-9.95-11.4-10.16-17.37
		c-0.2-5.65,4.68-12.92,9.46-16.95c6.84-5.75,15.14-3.04,21.33,2.64c9.77,8.97,19,18.53,28.33,27.97
		C677.21,669.57,688,680.75,698.87,691.91z"/>
	<path class="st1" d="M812.5,999.62c0,23.41,0.08,46.82-0.03,70.23c-0.08,17.31-6.71,23.87-24.25,23.89
		c-46.43,0.08-92.86,0.09-139.29,0c-17.31-0.03-23.87-6.71-23.89-24.25c-0.08-46.43-0.09-92.86,0-139.29
		c0.03-17.31,6.71-23.87,24.25-23.89c46.43-0.08,92.86-0.09,139.29,0c17.31,0.03,23.82,6.71,23.9,24.25
		C812.57,953.58,812.5,976.6,812.5,999.62z M662.77,1055.6c37.97,0,74.85,0,111.56,0c0-37.56,0-74.43,0-111.15
		c-37.56,0-74.43,0-111.56,0C662.77,981.73,662.77,1018.33,662.77,1055.6z"/>
	<path class="st1" d="M625.01,1298.83c0-23.02-0.1-46.04,0.03-69.06c0.1-16.67,6.81-23.43,23.5-23.46c46.82-0.1,93.64-0.1,140.46,0
		c16.67,0.04,23.43,6.8,23.46,23.49c0.1,46.82,0.1,93.64,0,140.46c-0.04,16.67-6.8,23.43-23.49,23.46c-46.82,0.1-93.64,0.1-140.46,0
		c-16.67-0.04-23.37-6.8-23.47-23.49C624.91,1346.43,625.01,1322.63,625.01,1298.83z M774.32,1355.99c0-37.98,0-74.85,0-111.55
		c-37.56,0-74.44,0-111.13,0c0,37.56,0,74.44,0,111.55C700.47,1355.99,737.07,1355.99,774.32,1355.99z"/>
	<path class="st1" d="M1121.84,718.79c-74.94,0-149.88,0-224.82-0.01c-3.9,0-7.89,0.31-11.68-0.38
		c-10.08-1.83-16.27-8.11-16.26-18.39c0.01-10.28,6.23-16.5,16.3-18.36c3.41-0.63,7-0.36,10.51-0.36
		c150.66-0.01,301.32-0.01,451.98,0c3.51,0,7.1-0.27,10.51,0.36c10.08,1.88,16.27,8.13,16.25,18.4
		c-0.01,10.27-6.22,16.54-16.3,18.35c-3.79,0.68-7.78,0.36-11.68,0.37C1271.72,718.79,1196.78,718.79,1121.84,718.79z"/>
	<path class="st1" d="M1121.83,981.28c74.94,0,149.88,0,224.82,0.01c3.9,0,7.89-0.32,11.68,0.36c10.09,1.81,16.29,8.08,16.31,18.35
		c0.02,10.27-6.17,16.53-16.25,18.4c-3.41,0.63-7,0.36-10.51,0.36c-150.66,0.01-301.32,0.01-451.98,0c-3.51,0-7.1,0.27-10.51-0.35
		c-10.07-1.86-16.29-8.08-16.31-18.36c-0.02-10.28,6.17-16.56,16.25-18.39c3.79-0.69,7.78-0.37,11.68-0.38
		C971.95,981.27,1046.89,981.28,1121.83,981.28z"/>
	<path class="st1" d="M1121.31,1318.76c-74.94,0-149.88,0.01-224.82-0.03c-4.28,0-8.73,0.31-12.81-0.71
		c-9.41-2.35-14.87-8.83-14.63-18.57c0.23-9.17,5.65-15.3,14.57-17.45c4.09-0.99,8.53-0.72,12.81-0.72
		c150.27-0.03,300.54-0.03,450.81-0.03c1.56,0,3.12-0.03,4.68,0c14.51,0.28,23.3,7.69,22.91,19.3
		c-0.38,11.18-8.83,18.14-22.85,18.16C1275.09,1318.81,1198.2,1318.76,1121.31,1318.76z"/>
	<path class="st1" d="M1093.92,793.79c-65.57,0-131.13,0-196.7-0.01c-3.9,0-7.88,0.32-11.68-0.34
		c-10.09-1.75-16.35-7.96-16.45-18.23c-0.1-10.28,6.04-16.58,16.1-18.52c3.4-0.66,7-0.39,10.51-0.39
		c131.91-0.02,263.83-0.02,395.74,0c3.51,0,7.1-0.28,10.51,0.33c10.09,1.79,16.34,7.97,16.45,18.24c0.1,10.27-6.03,16.61-16.1,18.51
		c-3.78,0.71-7.78,0.4-11.67,0.4C1225.05,793.79,1159.48,793.79,1093.92,793.79z"/>
	<path class="st1" d="M1094.93,1056.27c65.57,0,131.13-0.01,196.7,0.03c4.27,0,8.72-0.19,12.77,0.89
		c8.88,2.37,14.04,8.67,14.03,17.85c-0.01,9.18-5.19,15.47-14.07,17.83c-4.05,1.07-8.51,0.87-12.78,0.87
		c-131.91,0.04-263.83,0.03-395.74,0.02c-3.51,0-7.1,0.27-10.51-0.36c-10.07-1.88-16.27-8.12-16.26-18.39
		c0.01-10.28,6.22-16.54,16.3-18.35c3.79-0.68,7.78-0.37,11.68-0.37C963.01,1056.27,1028.97,1056.27,1094.93,1056.27z"/>
	<path class="st1" d="M1093.84,1393.76c-65.96,0-131.91,0.01-197.87-0.02c-3.89,0-7.91,0.26-11.65-0.57
		c-9.49-2.1-15.19-8.34-15.25-18.06c-0.06-9.73,5.61-16.02,15.06-18.22c3.73-0.87,7.76-0.61,11.65-0.61
		c131.91-0.03,263.83-0.02,395.74-0.01c3.51,0,7.1-0.28,10.51,0.34c10.08,1.82,16.31,8.03,16.37,18.3
		c0.06,10.27-6.1,16.58-16.18,18.45c-3.79,0.7-7.78,0.39-11.68,0.39C1224.97,1393.77,1159.4,1393.76,1093.84,1393.76z"/>
	<path class="st1" d="M1056.23,606.29c53.46,0,106.92-0.02,160.38,0.03c4.27,0,8.72-0.2,12.77,0.88
		c8.88,2.36,14.05,8.65,14.05,17.83c0,9.18-5.16,15.48-14.04,17.84c-4.05,1.08-8.5,0.88-12.77,0.88
		c-106.92,0.04-213.84,0.04-320.76,0.02c-3.51,0-7.1,0.27-10.51-0.36c-10.07-1.87-16.27-8.1-16.28-18.37
		c0-10.27,6.2-16.51,16.26-18.38c3.41-0.63,7-0.36,10.51-0.36C949.31,606.29,1002.77,606.29,1056.23,606.29z"/>
	<path class="st1" d="M1055.44,943.78c-54.24,0-108.49,0.35-162.72-0.42c-7.1-0.1-16.24-4.13-20.73-9.46
		c-8.02-9.54-0.85-24.13,11.85-26.96c3.75-0.83,7.76-0.64,11.65-0.64c107.31-0.03,214.62-0.02,321.93-0.02
		c1.56,0,3.12-0.05,4.68,0.01c12.96,0.46,21.24,7.55,21.48,18.37c0.25,11.29-8.24,19.03-21.92,19.06
		C1166.26,943.86,1110.85,943.78,1055.44,943.78z"/>
	<path class="st1" d="M1056.23,1206.26c53.46,0,106.92-0.02,160.38,0.03c4.27,0,8.72-0.2,12.77,0.88
		c8.88,2.36,14.05,8.65,14.06,17.83c0.01,9.18-5.16,15.48-14.04,17.84c-4.05,1.08-8.5,0.88-12.77,0.88
		c-106.92,0.04-213.84,0.04-320.76,0.02c-3.51,0-7.1,0.27-10.51-0.36c-10.07-1.87-16.28-8.1-16.28-18.37
		c-0.01-10.27,6.19-16.51,16.26-18.39c3.41-0.63,7-0.36,10.51-0.36C949.31,1206.26,1002.77,1206.26,1056.23,1206.26z"/>
</g>
</svg>
