<?xml version="1.0" encoding="utf-8"?>
<!-- Generator: Adobe Illustrator 23.0.0, SVG Export Plug-In . SVG Version: 6.00 Build 0)  -->
<svg version="1.1" id="Camada_1" xmlns="http://www.w3.org/2000/svg" xmlns:xlink="http://www.w3.org/1999/xlink" x="0px" y="0px"
	 viewBox="0 0 1000 1286" style="enable-background:new 0 0 1000 1286;" xml:space="preserve">
<style type="text/css">
	.st0{fill:#5C1889;}
	.st1{fill:#4A0072;}
	.st2{fill:#FFFFFF;}
	.st3{enable-background:new    ;}
</style>
<g>
	<g>
		<g>
			<g>
				<g>
					<polygon class="st0" points="300,0.32 0,109.52 0,1000.32 3.5,1000.32 300,892.42 					"/>
				</g>
				<g>
					<polygon class="st0" points="1000,0.32 700,109.52 700,1000.32 703.5,1000.32 1000,892.42 					"/>
				</g>
				<g>
					<polygon class="st1" points="300,0.32 700,109.52 700,1000.32 695.3,1000.32 300,892.42 					"/>
				</g>
			</g>
			<g>
				<g>
					<path class="st0" d="M552.5,395.57v-92.25H366.14c-10.54,0-19.14,8.8-19.14,19.71v354.58c0,10.86,8.54,19.71,19.14,19.71
						h267.74c10.53,0,19.12-8.79,19.12-19.69V404.32h-91.75C556.42,404.32,552.5,400.4,552.5,395.57z"/>
					<path class="st2" d="M577.5,309.57c-3.6-3.7-8.45-5.75-13.55-5.75h-11.6L653,404.47v-9.05c0-5.2-2-10.25-5.6-13.9L577.5,309.57
						z"/>
					<path class="st2" d="M561.25,404.32h91.9L552.5,303.72v91.85C552.5,400.4,556.42,404.32,561.25,404.32z"/>
					<path class="st2" d="M588.66,288.21c-4.1-4.1-9.65-6.4-15.45-6.4H346.9c-12.1,0-21.9,9.8-21.9,21.9v393.7
						c0,12.1,9.8,21.9,21.9,21.9h306.2c12.1,0,21.9-9.8,21.9-21.9V383.55c0-5.8-2.3-11.35-6.4-15.45L588.66,288.21z M653,404.32
						v273.29c0,10.86-8.56,19.71-19.16,19.71H365.66c-10.56,0-19.16-8.8-19.16-19.71V323.03c0-10.86,8.56-19.71,19.16-19.71h186.75
						l0,0l0,0h11.6c5.1,0.29,9.95,2.39,13.55,6.04l69.85,71.95c3.6,3.7,5.6,8.7,5.59,13.9V404.32L653,404.32z"/>
				</g>
				<g>
					<rect x="362.5" y="622.32" class="st2" width="275" height="25"/>
					<rect x="362.5" y="538.32" class="st2" width="275" height="25"/>
					<rect x="362.5" y="454.32" class="st2" width="275" height="25"/>
				</g>
			</g>
		</g>
	</g>
	<g>
		<g class="st3">
			<path class="st1" d="M52.52,1060.75v176.66H0v-176.66H52.52z"/>
			<path class="st1" d="M198.94,1237.94h-48.28v-72.92c0-7.43-3.03-11.14-9.08-11.14c-5.97,0-8.96,3.71-8.96,11.14v72.92H83.82
				v-72.01c0-16.84,5.57-31.02,16.7-42.55s24.78-17.29,40.92-17.29c18.47,0,33.28,6.69,44.42,20.07c8.72,10.45,13.08,25,13.08,43.65
				L198.94,1237.94L198.94,1237.94z"/>
			<path class="st1" d="M297.61,1137.15v50.92h-21.75v49.87h-48.28v-109.7c0-12.34,2.12-22.88,6.34-31.6
				c5.35-11.14,13.48-20.22,24.4-27.26c10.92-7.03,22.28-10.56,34.11-10.56l5.18,0.13v50.49c-1.13-0.08-1.95-0.13-2.48-0.13
				c-6.17,0-10.92,2.03-14.26,6.08c-3.35,4.06-5.01,9.84-5.01,17.35v4.4h21.75V1137.15z"/>
			<path class="st1" d="M379.99,1105.86c18.3,0,34,6.58,47.08,19.75s19.62,28.95,19.62,47.34c0,18.65-6.63,34.54-19.88,47.66
				c-13.26,13.12-29.25,19.69-47.98,19.69c-18.74,0-34.75-6.58-48.05-19.75s-19.95-29.03-19.95-47.6c0-18.91,6.65-34.82,19.95-47.73
				C344.07,1112.32,360.47,1105.86,379.99,1105.86z M378.7,1153.65c-5.18,0-9.59,1.88-13.21,5.63s-5.44,8.36-5.44,13.79
				c0,5.35,1.84,9.93,5.51,13.73c3.67,3.8,8.05,5.7,13.15,5.7c5.18,0,9.6-1.9,13.27-5.7c3.67-3.8,5.51-8.38,5.51-13.73
				c0-5.44-1.81-10.04-5.44-13.79S383.96,1153.65,378.7,1153.65z"/>
			<path class="st1" d="M547.48,1111.68v126.26h-52.52v-126.26h-40.32v-50.93H587.8v50.93H547.48z"/>
			<path class="st1" d="M674.27,1107.51v51.81c-3.35-1.9-6.4-2.85-9.14-2.85c-8.76,0-13.14,6.74-13.14,20.21v61.26h-48.81v-70.59
				c0-18.65,5.11-33.52,15.34-44.62c10.22-11.09,23.87-16.64,40.94-16.64C663.27,1106.09,668.2,1106.56,674.27,1107.51z"/>
			<path class="st1" d="M736.87,1108.5v128.91h-48.28V1108.5H736.87z M712.85,1050.95c6.56,0,12.24,2.31,17.03,6.93
				c4.79,4.62,7.19,10.08,7.19,16.38c0,6.74-2.27,12.26-6.8,16.58c-4.53,4.32-10.34,6.48-17.42,6.48s-12.89-2.16-17.42-6.48
				c-4.53-4.32-6.8-9.84-6.8-16.58c0-6.3,2.4-11.76,7.19-16.38C700.61,1053.26,706.29,1050.95,712.85,1050.95z"/>
			<path class="st1" d="M811.15,1285.68h-48.28v-107.76c0-19.77,5.17-35.88,15.51-48.31c5.94-7.17,13.5-12.86,22.68-17.1
				c9.17-4.23,18.59-6.34,28.24-6.34c19.21,0,35.41,6.48,48.59,19.43c13.19,12.95,19.77,28.84,19.77,47.66
				c0,18.31-6.55,34.11-19.64,47.41c-13.1,13.3-28.61,19.95-46.52,19.95c-2.93,0-7.24-0.3-12.92-0.91v-53.36
				c3.99,3.19,7.98,4.79,11.97,4.79c5.03,0,9.35-1.86,12.95-5.57c3.6-3.71,5.4-8.12,5.4-13.21s-1.87-9.43-5.6-13.02
				c-3.73-3.58-8.2-5.37-13.41-5.37c-12.5,0-18.75,8.59-18.75,25.77L811.15,1285.68L811.15,1285.68z"/>
			<path class="st1" d="M1000,1110.62v50.72c-6.83,0-11.52,1.27-14.07,3.82c-2.55,2.55-4.17,7.58-4.87,15.09
				c-2.25,24.95-11.93,42.57-29.05,52.84c-9.08,5.35-21.96,8.03-38.64,8.03h-6.75v-50.93h2.2c7.78,0,13.33-1.62,16.66-4.86
				c3.32-3.24,5.25-8.92,5.77-17.04c0.69-13.22,1.92-22.51,3.7-27.86c1.77-5.36,5.38-10.67,10.83-15.94
				c9.51-9.24,22.69-13.87,39.55-13.87H1000L1000,1110.62z"/>
		</g>
	</g>
</g>
<polygon class="st1" points="-500,-357 -500,-357 -500,-357 -500,-357 "/>
</svg>
