<?xml version="1.0" encoding="utf-8"?>
<!-- Generator: Adobe Illustrator 23.0.0, SVG Export Plug-In . SVG Version: 6.00 Build 0)  -->
<svg version="1.1" id="Camada_1" xmlns="http://www.w3.org/2000/svg" xmlns:xlink="http://www.w3.org/1999/xlink" x="0px" y="0px"
	 viewBox="0 0 2000 700" style="enable-background:new 0 0 2000 700;" xml:space="preserve">
<style type="text/css">
	.st0{enable-background:new    ;}
	.st1{fill:#4A0072;}
</style>
<g class="st0">
	<path class="st1" d="M156.49,147.73v333.25H57.37V147.73H156.49z"/>
	<path class="st1" d="M433.35,480.98h-91.31V343.53c0-14-5.78-21-17.33-21c-11.39,0-17.09,7-17.09,21v137.45h-91.31V345.24
		c0-31.74,10.5-58.47,31.49-80.2s46.71-32.59,77.15-32.59c34.83,0,62.74,12.62,83.74,37.84c16.44,19.7,24.66,47.12,24.66,82.28
		V480.98z"/>
	<path class="st1" d="M618.65,291.53v95.7h-40.77v93.75h-91.31V274.19c0-23.27,3.99-43.13,11.96-59.57
		c10.09-21,25.43-38.12,46.02-51.39c20.59-13.26,42.03-19.9,64.33-19.9l9.77,0.24v95.7c-2.12-0.16-3.66-0.24-4.64-0.24
		c-11.56,0-20.47,3.83-26.73,11.47c-6.27,7.65-9.4,18.55-9.4,32.71v8.3H618.65z"/>
	<path class="st1" d="M774.17,232.45c34.5,0,64.09,12.41,88.75,37.23c24.66,24.82,36.99,54.57,36.99,89.23
		c0,35.16-12.49,65.11-37.48,89.84c-24.99,24.74-55.14,37.11-90.45,37.11c-35.32,0-65.51-12.41-90.58-37.23
		c-25.07-24.82-37.6-54.73-37.6-89.72c0-35.64,12.53-65.63,37.6-89.97C706.46,244.62,737.38,232.45,774.17,232.45z M771.73,322.53
		c-9.77,0-18.07,3.54-24.9,10.62s-10.25,15.75-10.25,26c0,10.09,3.46,18.72,10.38,25.88c6.92,7.16,15.17,10.74,24.78,10.74
		c9.77,0,18.1-3.58,25.02-10.74c6.92-7.16,10.38-15.79,10.38-25.88c0-10.25-3.42-18.92-10.25-26S781.65,322.53,771.73,322.53z"/>
	<path class="st1" d="M1089.84,243.43v237.55h-99.12V243.43h-75.93v-95.7h250.73v95.7H1089.84z"/>
	<path class="st1" d="M1328.86,235.13v97.66c-6.35-3.58-12.13-5.37-17.33-5.37c-16.6,0-24.9,12.7-24.9,38.09v115.48h-91.31V347.92
		c0-35.16,9.6-63.19,28.81-84.11c19.2-20.91,44.84-31.37,76.9-31.37C1308.19,232.45,1317.46,233.34,1328.86,235.13z"/>
	<path class="st1" d="M1447.02,237.57v243.41h-91.31V237.57H1447.02z M1401.61,128.93c12.37,0,23.07,4.36,32.1,13.06
		c9.03,8.71,13.55,19,13.55,30.88c0,12.7-4.27,23.11-12.82,31.25c-8.54,8.14-19.49,12.21-32.84,12.21
		c-13.35,0-24.29-4.07-32.84-12.21c-8.54-8.14-12.82-18.55-12.82-31.25c0-11.88,4.52-22.17,13.55-30.88
		C1378.54,133.29,1389.24,128.93,1401.61,128.93z"/>
	<path class="st1" d="M1586.67,571.07h-91.31V367.94c0-37.27,9.77-67.63,29.3-91.06c11.23-13.51,25.51-24.25,42.85-32.23
		c17.33-7.97,35.11-11.96,53.34-11.96c36.29,0,66.89,12.21,91.8,36.62s37.35,54.36,37.35,89.84c0,34.51-12.37,64.29-37.11,89.36
		c-24.74,25.07-54.04,37.6-87.89,37.6c-5.54,0-13.67-0.57-24.41-1.71V383.81c7.48,6.02,14.97,9.03,22.46,9.03
		c9.44,0,17.54-3.5,24.29-10.5c6.75-7,10.13-15.3,10.13-24.9c0-9.6-3.5-17.78-10.5-24.54c-7-6.75-15.38-10.13-25.15-10.13
		c-23.44,0-35.16,16.2-35.16,48.58V571.07z"/>
	<path class="st1" d="M1942.63,240.99v96.19c-12.86,0-21.69,2.4-26.49,7.2c-4.8,4.8-7.85,14.28-9.16,28.44
		c-4.23,47.04-22.46,80.24-54.69,99.61c-17.09,10.09-41.34,15.14-72.75,15.14h-12.7v-96.68h4.15c14.65,0,25.1-3.05,31.37-9.16
		c6.26-6.1,9.89-16.8,10.86-32.1c1.3-24.9,3.62-42.4,6.96-52.49c3.33-10.09,10.13-20.1,20.39-30.03
		c17.9-17.41,42.72-26.12,74.46-26.12H1942.63z"/>
</g>
</svg>
