<?xml version="1.0" encoding="utf-8"?>
<!-- Generator: Adobe Illustrator 23.0.0, SVG Export Plug-In . SVG Version: 6.00 Build 0)  -->
<svg version="1.1" id="Camada_1" xmlns="http://www.w3.org/2000/svg" xmlns:xlink="http://www.w3.org/1999/xlink" x="0px" y="0px"
	 viewBox="0 0 2000 2000" style="enable-background:new 0 0 2000 2000;" xml:space="preserve">
<style type="text/css">
	.st0{fill:#4A0072;}
	.st1{fill:none;}
	.st2{fill:#FFFFFF;}
</style>
<title>icone-inserir-foto-perfil</title>
<path class="st0" d="M1000,0C448,0,0,448,0,1000s448,1000,1000,1000s1000-448,1000-1000S1552,0,1000,0z M1000,300
	c165.7,0,300,134.3,300,300s-134.3,300-300,300S700,765.7,700,600c-0.2-165.5,133.7-299.8,299.2-300C999.5,300,999.7,300,1000,300z
	 M1000,1720c-250,0-471-128-600-322c3-199,400-308,600-308c199,0,597,109,600,308C1471,1592,1250,1720,1000,1720z"/>
<path class="st0" d="M1000,1865.4h1000l0,0l0,0c0,74.3-60.3,134.6-134.6,134.6H1000l0,0V1865.4L1000,1865.4z"/>
<path class="st0" d="M1865.4,2000V1000l0,0H2000l0,0v865.4C2000,1939.7,1939.7,2000,1865.4,2000L1865.4,2000L1865.4,2000z"/>
<polygon class="st0" points="1415.6,1901.3 1665.7,1663.7 1915.7,1426 1901.7,1661.7 1887.7,1897.3 1651.7,1899.3 "/>
<path class="st1" d="M1733.5,1682.7c-45.1,0-81.7,36.6-81.7,81.7s36.6,81.7,81.7,81.7s81.7-36.6,81.7-81.7l0,0
	C1815.2,1719.3,1778.6,1682.7,1733.5,1682.7z M1733.5,1816.8c-28.9,0-52.3-23.4-52.3-52.3s23.4-52.3,52.3-52.3s52.3,23.4,52.3,52.3
	v0c0,28.9-23.3,52.3-52.2,52.3C1733.6,1816.8,1733.5,1816.8,1733.5,1816.8z"/>
<path class="st1" d="M1523.3,1540.3v65.4h49v-49.1h32.7v49.1h49v32.7h-49v49h-32.7v-49h-49v294.3h392.4v-392.4H1523.3z
	 M1899.3,1867.3c0,18-14.7,32.7-32.7,32.7H1605c-18-0.1-32.6-14.7-32.7-32.7v-163.5h49.1v-49h49v-49h114.4l29.9,32.7h51.8
	c18,0,32.6,14.7,32.7,32.7L1899.3,1867.3z"/>
<path class="st2" d="M1866.6,1638.3h-51.8l-29.9-32.7h-114.4v49h-49v49h-49.1v163.5c0.1,18,14.7,32.6,32.7,32.7h261.5
	c18,0,32.7-14.7,32.7-32.7V1671C1899.2,1653,1884.6,1638.4,1866.6,1638.3z M1733.5,1846.2c-45.1,0-81.7-36.6-81.7-81.7
	s36.6-81.7,81.7-81.7s81.7,36.6,81.7,81.7l0,0C1815.2,1809.6,1778.6,1846.2,1733.5,1846.2z"/>
<circle class="st2" cx="1733.5" cy="1764.5" r="52.3"/>
<polygon class="st2" points="1572.3,1687.4 1605,1687.4 1605,1638.3 1654.1,1638.3 1654.1,1605.6 1605,1605.6 1605,1556.6 
	1572.3,1556.6 1572.3,1605.6 1523.3,1605.6 1523.3,1638.3 1572.3,1638.3 "/>
</svg>
