<?xml version="1.0" encoding="utf-8"?>
<!-- Generator: Adobe Illustrator 23.0.0, SVG Export Plug-In . SVG Version: 6.00 Build 0)  -->
<svg version="1.1" id="Camada_1" xmlns="http://www.w3.org/2000/svg" xmlns:xlink="http://www.w3.org/1999/xlink" x="0px" y="0px"
	 viewBox="0 0 2000 2000" style="enable-background:new 0 0 2000 2000;" xml:space="preserve">
<style type="text/css">
	.st0{fill:#4A0072;}
	.st1{fill:#FFFFFF;}
</style>
<g>
	<circle class="st0" cx="1000" cy="1000" r="1000"/>
</g>
<g>
	<path class="st1" d="M634.49,1798.31c5.41-11.84,10.54-23.82,16.27-35.5c33.74-68.73,70.72-135.75,107.67-202.78
		c10.1-18.32,20.39-36.54,30.53-54.83c0.56-1.01,0.89-2.28,0.9-3.43c0.06-11.29,0.06-22.59-0.01-33.89
		c-0.01-1.04-0.43-2.17-0.95-3.1c-0.96-1.72-2.12-3.32-3.34-5.18c1.59-1.92,3.11-3.92,4.84-5.72c0.53-0.55,1.64-0.74,2.5-0.75
		c5.83-0.06,11.65-0.03,18.16-0.03c-10.86-8.87-18.14-19.63-23.36-32.34c6.83,0,13.21-0.12,19.59,0.06
		c2.35,0.07,3.77-0.77,5.14-2.55c8.07-10.45,14.58-21.85,20.53-33.59c15.51-30.58,27.74-62.53,38.72-94.95
		c7.51-22.19,14.29-44.63,21.38-66.96c0.42-1.32,0.69-2.68,1.1-4.25c-2.51,0-4.76,0-7.38,0c1.44-6.88,2.84-13.52,4.25-20.27
		c3.39,3.03,4.88,2.85,6.37-1.27c1.2-3.31,1.69-6.87,2.47-10.33c0.43-1.91-0.49-3.06-2.25-3.59c-3.41-1.02-4.81-3.34-5.62-6.8
		c-2.81-11.96-6.01-23.83-9.07-35.73c-0.89-3.44,2.41-10.32,5.61-11.66c5.01-2.1,9.98-4.31,15.06-6.25c1.94-0.74,2.81-1.76,2.92-3.8
		c0.1-1.94,0.51-3.87,0.8-5.95c2.88,0,5.6,0,8.5,0c1.52-6.99,2.92-13.87,4.51-20.71c3.57-15.34,4.78-30.99,6.27-46.61
		c1.67-17.5,3.32-35,4.86-52.51c1.47-16.76,2.79-33.54,4.18-50.31c1.44-17.42,2.91-34.84,4.32-52.27
		c1.03-12.74,1.97-25.5,2.97-38.24c1.26-16.02,2.55-32.04,3.79-48.06c1.22-15.74,2.37-31.48,3.57-47.22
		c1.25-16.4,2.58-32.79,3.77-49.2c1.14-15.84,2.32-31.68,3.16-47.54c0.9-16.98,1.41-33.99,2.12-50.98c0.03-0.81,0.08-2.01,0.59-2.35
		c2.17-1.46,1.9-3.69,2.05-5.74c1.18-15.65,2.35-31.3,3.35-46.96c0.09-1.41-0.87-2.97-1.59-4.34c-1.19-2.27-1.15-4.06,1.27-5.49
		c0.56-0.33,1.07-1.21,1.12-1.87c1.12-14.71,2.19-29.43,3.22-44.15c0.06-0.79-0.26-1.61-0.4-2.42c-0.15-0.9-0.75-2.11-0.38-2.66
		c2.24-3.32,1.6-7.12,1.86-10.68c0.64-8.9,0.9-17.84,1.15-26.76c0.06-2.09-0.72-4.2-0.75-6.31c-0.02-1.71,0.78-3.43,0.76-5.14
		c-0.08-7.43-0.07-14.87-0.58-22.27c-0.86-12.47-2.04-24.92-3.2-37.36c-0.14-1.51-0.85-3.01-1.51-4.42
		c-0.55-1.18-1.29-2.32-2.14-3.3c-4.09-4.73-5.83-10.1-5.87-16.42c-0.04-6.65-1.04-13.29-1.61-19.94c-0.31-3.54,1.65-5.61,5.45-6.16
		c1.24-0.18,2.85-0.72,3.49-1.65c2.47-3.58,5.51-5.72,10.02-5.44c1.1,0.07,2.22-0.23,3.46-0.37c0.66-2.63,0.32-4.44-2.58-5.74
		c-4.15-1.86-8.04-4.29-12.79-6.89c2.4-0.81,4-1.63,5.68-1.88c11.86-1.72,18.6-9.18,22.79-19.76c2.47-6.24,3.2-12.76,3.25-19.32
		c0.13-16.74-0.22-33.49,0.04-50.24c0.1-6.23,1.4-12.45,2.1-18.68c0.17-1.49,0.12-3,0.17-4.5c1.51,0,3.01,0,4.52,0
		c0.57,4.45,1.5,8.88,1.65,13.34c0.35,10.81,0.47,21.62,0.42,32.44c-0.06,13.43-1.07,26.94,1.41,40.22
		c1.57,8.43,5.06,16.36,12.38,21.42c3.57,2.47,8.19,3.43,12.34,5.03c1.59,0.61,3.22,1.11,5.65,1.95c-4.75,2.59-8.66,4.72-12.58,6.85
		c-3.28,1.78-3.28,1.77-2.86,5.71c1.24,0.17,2.55,0.6,3.8,0.48c4.54-0.44,7.28,2.04,9.73,5.38c0.64,0.87,2.05,1.48,3.18,1.62
		c4.17,0.5,5.92,2.3,5.64,6.46c-0.61,8.91-1.29,17.81-2,26.71c-0.07,0.89-0.52,1.75-0.83,2.62c-0.09,0.26-0.27,0.5-0.46,0.7
		c-6.54,7.38-8.82,16.18-9.18,25.84c-0.57,15.49-1.54,30.97-2.25,46.46c-0.05,1.06,0.82,2.13,0.98,3.24
		c0.19,1.37,0.24,2.81,0.07,4.18c-0.21,1.62-1.1,3.21-1.04,4.79c0.45,11.65,0.76,23.31,1.7,34.93c1.39,17.28,3.24,34.53,4.98,51.79
		c0.09,0.92,1.01,1.72,1.4,2.64c0.5,1.21,1.6,3.02,1.16,3.63c-2.89,3.93-1.49,8.18-1.19,12.26c1.12,15.37,2.52,30.73,3.61,46.1
		c0.17,2.46-1.14,5.02-0.98,7.49c1.21,18.47,2.43,36.95,4.05,55.39c0.59,6.71,0.73,13.44,1.45,20.14c0.74,6.91,1.1,13.86,1.6,20.8
		c0.5,6.84,0.9,13.69,1.46,20.53c1.36,16.92,2.85,33.83,4.16,50.75c1.09,14.05,1.95,28.13,3.01,42.18
		c1.22,16.12,2.56,32.22,3.83,48.34c1.4,17.71,2.74,35.42,4.18,53.13c1.37,16.85,2.82,33.7,4.26,50.55
		c1.37,16.02,2.57,32.05,4.21,48.04c2.07,20.28,4.24,40.56,6.9,60.77c1.16,8.81,3.58,17.46,5.57,26.15
		c0.17,0.73,1.34,1.65,2.13,1.74c2.13,0.24,4.31,0.08,6.65,0.08c0.23,1.25,0.68,2.43,0.61,3.58c-0.23,3.85,1.54,5.82,5.16,7.05
		c4.87,1.66,9.56,3.87,14.27,5.98c0.89,0.4,1.73,1.33,2.19,2.23c2.23,4.36,2.66,8.69,1.2,13.64c-3.24,10.97-5.9,22.12-8.56,33.25
		c-0.66,2.76-2.67,3.5-4.67,4.23c-2.15,0.78-3.1,1.98-2.63,4.17c0.71,3.28,1.18,6.65,2.33,9.78c1.58,4.29,3.02,4.53,6.49,1.62
		c1.4,6.65,2.79,13.21,4.24,20.1c-2.53,0-4.9,0-7.64,0c3.6,11.86,6.96,23.37,10.59,34.8c10.96,34.5,22.77,68.7,37.12,101.96
		c8.89,20.61,18.52,40.82,31.4,59.36c3.22,4.64,6.57,6.99,12.38,6.32c4.89-0.56,9.9-0.12,15.24-0.12
		c-5.28,12.64-12.45,23.43-23.39,32.31c6.01,0,11.42,0.13,16.82-0.06c2.39-0.08,4.09,0.46,5.4,2.54c0.89,1.42,2.13,2.61,3.17,3.86
		c-0.08,0.29-0.08,0.52-0.18,0.64c-3.6,3.94-4.26,8.59-4.09,13.78c0.31,9.21,0.05,18.45,0.12,27.67c0.01,1.26,0.28,2.66,0.87,3.74
		c22.69,41.15,45.81,82.07,68.07,123.44c22.92,42.61,45.19,85.58,67.38,128.57c7,13.55,12.85,27.69,19.23,41.56
		c-2.36,0.19-4.72,0.48-7.09,0.55c-3.57,0.09-7.15,0.02-10.72,0.02c-3.48,0-6.96-0.11-10.44,0.03c-3.32,0.14-6.63-0.15-9.95-0.12
		c-18.02,0.19-36.04,0.09-54.05,0.08c-7.19,0-14.39,0.01-21.58,0.01c-5.45,0-10.91-0.13-16.36,0.03c-5.21,0.16-10.4-0.29-15.62-0.12
		c-8.64,0.28-17.3,0.08-25.95,0.08c-0.78-6.05-1.39-12.12-2.36-18.13c-4.47-27.67-12.32-54.31-24.59-79.57
		c-10.65-21.92-24.28-41.74-42.07-58.49c-27.32-25.72-60.04-39.97-97-44.88c-24.84-3.3-49.53-2.27-73.98,3.33
		c-40.3,9.23-72.95,30.39-98.11,63.14c-18.18,23.67-30.32,50.33-38.75,78.8c-5.4,18.24-8.91,36.85-10.79,55.78
		c-5.31,0-10.61,0.01-15.92,0.01c-4.28,0-8.55-0.01-12.83-0.01c-13.08,0-26.16,0.01-39.23,0.01c-25.26,0.01-50.53,0.01-75.79,0.02
		c-8.37,0-16.75,0.03-25.12-0.05C636.32,1799.35,635.41,1798.67,634.49,1798.31z M894.41,1256.54c6.46-4.23,12.91-8.47,19.5-12.79
		c-4.31-5.27-8.33-10.18-12.34-15.08c-2.57,9.33-5.07,18.43-7.57,27.53c-0.02,0.23-0.04,0.46-0.06,0.69
		C894.1,1256.77,894.26,1256.65,894.41,1256.54z M908.51,1193.8c12.51-4.56,25.02-9.11,38.21-13.91
		c-10.94-3.79-21.16-7.32-31.55-10.92c-0.7,2.41-1.32,4.46-1.88,6.53c-1.65,6.04-3.28,12.09-4.92,18.14
		c-0.09,0.11-0.19,0.21-0.27,0.33c-0.01,0.01,0.11,0.11,0.17,0.17C908.35,1194.03,908.43,1193.91,908.51,1193.8z M875.98,1306.59
		c8.39-4.17,16.79-8.33,25.16-12.54c0.67-0.34,1.4-1.01,1.63-1.68c0.72-2.13,1.29-4.32,1.76-6.52c0.12-0.58-0.15-1.52-0.59-1.91
		c-4.91-4.35-9.9-8.62-14.92-12.97c-1.64,4.37-3.18,8.5-4.75,12.61c-2.87,7.51-5.77,15.02-8.65,22.53c-0.1,0.18-0.19,0.36-0.29,0.54
		C875.54,1306.63,875.76,1306.61,875.98,1306.59z M919.19,1380.74c-3.18,1.33-6.39,2.61-9.55,3.99c-7.41,3.25-14.81,6.55-22.56,9.99
		c6.83,7.45,13.43,14.63,20.02,21.82c0.36-0.01,0.71-0.01,1.07-0.02c3.8-11.82,7.6-23.65,11.39-35.47
		c-0.03-0.23-0.05-0.45-0.08-0.68C919.39,1380.5,919.29,1380.62,919.19,1380.74z M900.09,1330.57c9.03-4.97,18.06-9.92,27.08-14.91
		c2.66-1.47,5.29-3.01,8.11-4.62c-5.5-4.78-10.94-9.16-15.93-13.98c-2.63-2.54-4.85-2.97-7.63-0.8c-1.32,1.03-3.34,1.94-3.72,3.28
		c-2.95,10.17-5.57,20.43-8.3,30.67c-0.04,0.22-0.08,0.44-0.11,0.67C899.75,1330.78,899.92,1330.68,900.09,1330.57z M933.23,1320.21
		c-3.95,2.12-7.93,4.2-11.85,6.38c-8.18,4.54-16.32,9.14-24.77,13.87c8.55,10.32,16.94,20.45,25.34,30.58c0.3-0.07,0.6-0.13,0.9-0.2
		c3.59-16.75,7.18-33.51,10.77-50.26c0.03-0.23,0.05-0.45,0.08-0.68C933.55,1320.01,933.39,1320.11,933.23,1320.21z M938.71,1401.31
		c1.02,0.14,1.57,0.23,2.13,0.28c13.39,1.13,26.77,2.3,40.17,3.37c6.83,0.55,13.72,1.65,20.51,1.25c17.16-0.99,34.29-2.68,51.43-4.1
		c2.67-0.22,5.33-0.51,8.2-0.78c-9.35-47.47-18.63-94.59-27.93-141.81c-22.23,0-44.31,0-66.58,0
		C957.33,1306.75,948.05,1353.88,938.71,1401.31z M996.79,1008.54c-8.62-16.67-16.97-32.8-25.53-49.34
		c-10.06,16.62-19.82,32.74-29.86,49.34C960.26,1008.54,978.21,1008.54,996.79,1008.54z M1010.1,1008.5c16.52,0,32.65,0,49.25,0
		c-9.07-14.98-17.93-29.6-27.03-44.6C1024.85,978.9,1017.55,993.55,1010.1,1008.5z M1004.57,1004.24c0.63-1.14,1-1.74,1.31-2.37
		c7.09-14.16,14.13-28.34,21.29-42.46c0.88-1.73,0.73-3-0.23-4.55c-4.25-6.86-8.42-13.77-12.62-20.66
		c-3.14-5.15-6.27-10.3-9.76-16.03C1004.57,947.13,1004.57,975.37,1004.57,1004.24z M825.14,1414.83
		c17.06-7.56,33.63-14.9,50.66-22.45c-8.81-9.6-17.31-18.86-25.92-28.26C841.6,1381.08,833.52,1397.66,825.14,1414.83z
		 M1105.33,1340.45c-13.21-7.4-26.11-14.62-39.86-22.33c3.84,19.13,7.53,37.46,11.21,55.8c0.28,0.03,0.57,0.06,0.85,0.09
		C1086.72,1362.92,1095.91,1351.82,1105.33,1340.45z M1031.78,950.06c6.36-12.69,12.48-24.9,18.58-37.12
		c1.2-2.4,0.86-2.97-1.86-2.98c-9.12-0.03-18.23-0.02-27.35-0.02c-4.38,0-8.76,0-13.69,0
		C1015.66,923.47,1023.6,936.57,1031.78,950.06z M943.26,991.26c0.19,0.05,0.37,0.1,0.56,0.16c0.18-0.28,0.37-0.55,0.54-0.83
		c7.45-12.26,14.92-24.51,22.28-36.83c0.48-0.81,0.47-2.33,0.04-3.19c-5.75-11.36-11.61-22.67-17.46-33.98
		c-0.17-0.33-0.52-0.57-0.96-1.03C946.58,941.02,944.92,966.14,943.26,991.26z M996.42,918.23c-0.62,0.74-1.01,1.1-1.27,1.54
		c-6.28,10.35-12.58,20.68-18.73,31.11c-0.55,0.94-0.44,2.73,0.08,3.77c4.93,9.8,10.01,19.52,15.05,29.26
		c1.47,2.83,2.99,5.65,4.48,8.47c0.13-0.07,0.26-0.14,0.38-0.2C996.42,967.68,996.42,943.19,996.42,918.23z M1004.49,1075.96
		c2.67,0.95,4.22-0.15,5.57-2.11c1.7-2.47,3.61-4.81,5.43-7.2c5.12-6.7,10.24-13.39,15.01-19.63c-8.85-8.9-17.47-17.57-26.01-26.15
		C1004.49,1039.06,1004.49,1057.48,1004.49,1075.96z M1150.11,1366.27c-8.08,8.8-15.91,17.33-23.99,26.13
		c14.21,6.28,27.98,12.36,42.28,18.68C1162.17,1395.83,1156.23,1381.28,1150.11,1366.27z M1054.04,921.37
		c-0.4,0.35-0.68,0.48-0.79,0.7c-5.57,11.15-11.16,22.3-16.63,33.51c-0.37,0.76-0.1,2.15,0.37,2.96
		c3.96,6.71,8.03,13.35,12.07,20.02c3.28,5.41,6.56,10.82,9.83,16.23c0.18-0.05,0.35-0.1,0.53-0.16
		C1057.64,970.28,1055.85,945.93,1054.04,921.37z M949.09,903.1c0.21,0.16,0.43,0.32,0.64,0.49c0.52-0.52,1.17-0.96,1.52-1.57
		c6.8-11.78,13.6-23.56,20.28-35.41c0.44-0.78,0.26-2.33-0.23-3.16c-3.89-6.64-7.93-13.18-11.92-19.77
		c-1.78-2.94-3.54-5.89-5.31-8.83c-0.21,0.04-0.41,0.09-0.62,0.13C952,857.68,950.54,880.39,949.09,903.1z M997.2,1015.51
		c-17.55,0-34.11,0-51.12,0c7.31,9.54,14.37,18.75,21.54,28.12C977.37,1034.36,987,1025.21,997.2,1015.51z M1028.2,865.34
		c7.99,11.72,15.94,23.4,24.34,35.74c-1.67-22.83-3.28-44.85-4.96-67.68C1040.86,844.49,1034.55,854.88,1028.2,865.34z
		 M1045.34,823.81c-7.01-11.78-13.85-23.27-20.94-35.17c-6.85,11.81-13.52,23.31-20.4,35.17
		C1018.14,823.81,1031.54,823.81,1045.34,823.81z M971.72,945.54c7.32-12.08,14.33-23.66,21.5-35.5c-13.32,0-26.08,0-39.78,0
		C959.62,922.04,965.54,933.53,971.72,945.54z M971.73,1048.97c6.46,8.44,12.89,16.65,19.09,25.03c1.53,2.07,3.11,2.71,5.56,2.01
		c0-16.58,0-33.17,0-50.42C987.96,1033.57,979.95,1041.17,971.73,1048.97z M1093.03,1418.55c7.36-8.04,14.53-15.88,21.81-23.84
		c-12.27-5.43-24.15-10.69-36.51-16.16C1082.21,1392.54,1086.27,1405.91,1093.03,1418.55z M1045.92,903.3
		c-7.25-10.65-14.29-20.98-21.55-31.63c-6.46,10.65-12.73,21-19.18,31.63C1018.94,903.3,1032.16,903.3,1045.92,903.3z
		 M975.93,789.39c-6.94,11.65-13.62,22.88-20.48,34.42c12.67,0,24.83,0,37.32,0C987.13,812.29,981.63,801.04,975.93,789.39z
		 M937.18,1072.55c8.76-8.32,17.12-16.27,25.56-24.28c-7.05-9.2-14.05-18.34-21.46-28.01
		C939.89,1037.94,938.56,1054.93,937.18,1072.55z M1061.17,1018.05c-7.39,9.64-14.28,18.63-21.04,27.45
		c8.33,8.36,16.52,16.57,24.91,24.98C1063.76,1053.18,1062.5,1036.02,1061.17,1018.05z M1102.32,1331.05
		c-0.13-0.98-0.15-1.54-0.29-2.06c-2.23-8.33-4.8-16.59-6.58-25.01c-1.01-4.78-3.36-7.66-7.81-8.98c-0.85-0.25-2.18-0.12-2.84,0.4
		c-2.87,2.27-5.57,4.76-8.34,7.16c-3.21,2.79-6.42,5.57-9.83,8.53C1078.65,1317.82,1090.32,1324.35,1102.32,1331.05z M976.41,871.68
		c-6.14,10.7-12.06,21.03-18.09,31.54c12.64,0,24.79,0,37.2,0C989.12,892.64,982.86,882.32,976.41,871.68z M1010.54,1015.46
		c8.25,8.26,16.61,16.64,24.99,25.03c6.18-8.07,12.53-16.36,19.16-25.03C1039.49,1015.46,1024.88,1015.46,1010.54,1015.46z
		 M1107.32,1348.59c-7.34,8.85-14.34,17.29-21.52,25.94c10.96,4.85,21.7,9.6,32.85,14.54
		C1114.84,1375.44,1111.16,1362.3,1107.32,1348.59z M894.63,1348.58c-3.82,13.66-7.49,26.78-11.32,40.49
		c11.23-4.97,21.92-9.71,32.82-14.54C908.88,1365.78,901.89,1357.35,894.63,1348.58z M1092.89,1195.56
		c-0.96-0.93-1.33-1.54-1.86-1.75c-0.67-0.27-1.48-0.14-2.21-0.31c-14.26-3.25-28.52-6.55-42.8-9.74c-1.38-0.31-3-0.22-4.36,0.19
		c-10.04,3.05-20.05,6.22-30.06,9.37c-1.8,0.57-3.56,1.22-5.35,1.83c0.04,0.13,0.09,0.26,0.13,0.4
		C1034.93,1195.56,1063.48,1195.56,1092.89,1195.56z M1060.34,1076.22c-8.37-8.34-16.53-16.46-24.81-24.7
		c-6.12,8-12.39,16.2-18.9,24.7C1031.48,1076.22,1045.76,1076.22,1060.34,1076.22z M1024.07,859.23
		c5.86-9.68,11.55-19.07,17.3-28.58c-12.42,0-24.42,0-36.77,0C1011.16,840.28,1017.53,849.63,1024.07,859.23z M877.67,1384.44
		c3.7-13.28,7.25-26.04,11.01-39.53c-10.84,6.06-20.95,11.72-31.27,17.49C864.13,1369.71,870.71,1376.87,877.67,1384.44z
		 M1113.23,1344.88c3.79,13.54,7.39,26.38,11.09,39.58c6.94-7.58,13.51-14.76,20.18-22.06
		C1134.11,1356.58,1123.97,1350.89,1113.23,1344.88z M996.42,755.97c-0.17-0.04-0.34-0.08-0.52-0.12
		c-5.08,8.52-10.19,17.02-15.18,25.6c-0.4,0.68-0.22,2,0.16,2.8c3.13,6.6,6.36,13.15,9.58,19.71c1.84,3.73,3.72,7.45,5.58,11.17
		c0.13-0.05,0.25-0.1,0.38-0.15C996.42,795.3,996.42,775.64,996.42,755.97z M1113.14,1270.8c-4.4,3.79-8.45,7.55-12.8,10.92
		c-2.67,2.07-3.25,4.02-2.25,7.32c0.92,3.04,2.19,4.96,5.12,6.32c7.3,3.39,14.43,7.14,21.63,10.73c0.5,0.25,1.06,0.39,1.78,0.64
		C1122.1,1294.69,1117.7,1282.96,1113.14,1270.8z M886.3,1338.56c-5.5-6.65-10.77-13.02-16.21-19.58
		c-5.68,12.76-11.17,25.07-16.98,38.12C864.59,1350.69,875.28,1344.71,886.3,1338.56z M943.18,1076.1c13.85,0,27.19,0,40.87,0
		c-5.83-7.62-11.45-14.97-17.2-22.48C959.04,1061.05,951.29,1068.4,943.18,1076.1z M959.31,830.55
		c5.75,9.47,11.26,18.53,16.96,27.93c5.48-9.55,10.69-18.62,16.04-27.93C981.17,830.55,970.47,830.55,959.31,830.55z M996.4,891.73
		c0-18.55,0-36.24,0-54.01c-0.29,0.14-0.52,0.17-0.59,0.28c-5.02,8.67-10.04,17.35-15,26.06c-0.28,0.5-0.24,1.48,0.07,1.98
		C985.88,874.4,990.94,882.72,996.4,891.73z M1062.51,1274.91c7.05,3.53,13.8,6.97,20.63,10.26c0.85,0.41,2.49,0.44,3.09-0.1
		c1.34-1.21,3.75-1.74,2.82-4.75c-1.9-6.17-3.33-12.48-4.98-18.72c-0.82-3.11-1.69-6.2-2.66-9.77
		C1074.91,1259.75,1068.8,1267.22,1062.51,1274.91z M942.94,1268.56c1.96-13.59,3.83-26.64,5.8-40.31
		c-8.73,5.9-16.84,11.37-25.02,16.9C930.18,1253.02,936.37,1260.56,942.94,1268.56z M1007.62,747.38
		c5.71,9.57,11.11,18.63,16.72,28.03c4.8-8.27,9.39-16.09,13.89-23.96c0.94-1.64-0.39-4.04-2.23-4.05
		C1026.71,747.35,1017.42,747.38,1007.62,747.38z M939.43,1274.92c-6.33-7.74-12.54-15.33-18.96-23.17
		c-2.62,10.02-5.08,19.64-7.71,29.22c-0.64,2.33,1.32,2.65,2.33,3.58c0.72,0.67,2.3,1.28,3.02,0.93
		C925.22,1282.11,932.22,1278.53,939.43,1274.92z M955.01,810.6c0.15,0.02,0.3,0.04,0.44,0.06c4.5-7.57,8.71-15.32,13.6-22.63
		c2.77-4.14,3.13-7.39,0.59-11.81c-3.94-6.87-7.1-14.18-10.59-21.3c-0.18,0.03-0.35,0.05-0.53,0.08
		C957.35,773.53,956.18,792.07,955.01,810.6z M995.75,740.56c-5.41-9.08-10.61-17.79-16.02-26.88c-5.53,9.11-10.83,17.85-16.3,26.88
		C974.35,740.56,984.82,740.56,995.75,740.56z M1054.59,1229.21c1.45,13.45,2.82,26.22,4.26,39.58
		c6.72-8.22,12.99-15.88,19.37-23.67C1070.38,1239.84,1062.79,1234.73,1054.59,1229.21z M1004.65,755.55c0,18.1,0,35.61,0,53.71
		c3.86-6.61,7.41-12.66,10.93-18.72c1.6-2.75,4.42-5.55,4.38-8.3c-0.04-2.86-2.86-5.68-4.47-8.51c-0.28-0.49-0.55-0.98-0.84-1.46
		C1011.41,766.85,1008.17,761.43,1004.65,755.55z M1145.72,1355.36c-4.89-12.41-9.48-24.03-14.2-36
		c-5.4,6.52-10.57,12.78-15.88,19.19C1125.59,1344.11,1135.28,1349.53,1145.72,1355.36z M976.51,775.31
		c5.63-9.47,11.01-18.53,16.53-27.8c-10.24,0-19.97,0-30.12,0C967.48,756.83,971.9,765.89,976.51,775.31z M1045.3,810.67
		c0.21-0.06,0.42-0.12,0.63-0.19c-1.25-17.14-2.5-34.28-3.75-51.41c-4.84,7.32-9.17,14.74-13.43,22.2
		c-0.24,0.42-0.14,1.26,0.13,1.71C1034.32,792.23,1039.82,801.45,1045.3,810.67z M990.76,1195.52c0.02-0.13,0.04-0.26,0.06-0.39
		c-11.03-3.82-22.04-7.68-33.1-11.42c-0.93-0.32-2.22,0-3.22,0.35c-5.65,2.02-11.26,4.13-16.88,6.23c-4.24,1.58-8.47,3.2-12.7,4.8
		c0.04,0.14,0.08,0.28,0.12,0.42C946.95,1195.52,968.86,1195.52,990.76,1195.52z M1000.28,1166.02c-0.02,0.14-0.03,0.28-0.05,0.42
		c10.02,2.3,20.17,4.14,30.01,7.04c9.03,2.66,17.57,2.76,26.12-1.21c0.59-0.27,1.25-0.39,1.87-0.59c5.45-1.75,10.91-3.5,16.36-5.25
		c-0.04-0.14-0.08-0.28-0.12-0.41C1049.74,1166.02,1025.01,1166.02,1000.28,1166.02z M1004.63,842.65c0,16.41,0,32.2,0,48.62
		c5.18-8.56,10.05-16.54,14.82-24.58c0.35-0.59,0.23-1.84-0.17-2.44C1014.56,857.17,1009.74,850.15,1004.63,842.65z M967.87,612.44
		c-0.17,0.05-0.35,0.09-0.52,0.14c-1.06,17.38-2.13,34.76-3.19,52.14c5.39-8.39,10.16-16.86,14.87-25.36
		c0.31-0.55,0.47-1.46,0.23-1.99C975.51,629.04,971.68,620.74,967.87,612.44z M1037.03,688.11c-0.21-0.09-0.41-0.18-0.62-0.27
		c-3.92,6.58-7.86,13.14-11.69,19.77c-0.28,0.49,0.13,1.55,0.47,2.21c2.94,5.75,5.91,11.49,8.91,17.21
		c2.05,3.91,4.14,7.8,6.22,11.69c0.13-0.06,0.25-0.11,0.38-0.17C1039.47,721.75,1038.25,704.93,1037.03,688.11z M1033.69,740.58
		c-4.57-8.69-8.92-16.95-13.46-25.59c-5.26,8.84-10.19,17.14-15.22,25.59C1014.71,740.58,1023.98,740.58,1033.69,740.58z
		 M1101.66,1301.97c2.97,10.99,5.79,21.43,8.74,32.35c5.59-6.74,10.94-13.19,16.41-19.78
		C1118.37,1310.33,1110.27,1306.28,1101.66,1301.97z M891.56,1334.34c2.95-10.95,5.77-21.4,8.73-32.36
		c-8.67,4.34-16.74,8.38-25.11,12.58C880.61,1321.13,885.86,1327.46,891.56,1334.34z M965.75,677.05
		c4.77,8.01,9.33,15.67,14.06,23.6c4.85-8.01,9.48-15.65,14.29-23.6C984.55,677.05,975.47,677.05,965.75,677.05z M1007.93,677
		c4.35,8.31,8.46,16.16,12.71,24.26c4.83-8.14,9.53-16.04,14.41-24.26C1025.78,677,1017.16,677,1007.93,677z M961.32,729.83
		c0.22,0.05,0.43,0.1,0.65,0.16c4.42-7.26,8.87-14.5,13.2-21.82c0.35-0.59,0.16-1.79-0.22-2.45c-2.66-4.63-5.43-9.18-8.16-13.76
		c-1.07-1.79-2.13-3.58-3.2-5.37c-0.22,0.07-0.44,0.14-0.66,0.21C962.4,701.13,961.86,715.48,961.32,729.83z M1088.57,1169.08
		c-10.64,3.37-21.03,6.65-31.42,9.94c0.04,0.16,0.08,0.31,0.12,0.47c11.18,2.54,22.36,5.08,33.88,7.7
		C1090.26,1180.99,1089.44,1175.25,1088.57,1169.08z M983.2,645.7c-4.68,8.34-9.12,16.26-13.7,24.43c8.56,0,16.6,0,24.96,0
		C990.71,661.99,987.06,654.08,983.2,645.7z M966.33,1179.56c10.65,3.68,20.48,7.07,30.74,10.62c-1.18-5.63-2.24-10.65-3.27-15.68
		c-0.63-3.07-2.61-4.26-5.66-3.14C981.11,1173.95,974.11,1176.63,966.33,1179.56z M928.49,1166.01c0,0.16,0,0.32-0.01,0.48
		c8.9,3.07,17.81,6.16,26.72,9.2c0.57,0.19,1.32,0.3,1.85,0.1c8.39-3.08,16.76-6.21,25.14-9.33c-0.03-0.15-0.07-0.3-0.1-0.45
		C964.22,1166.01,946.36,1166.01,928.49,1166.01z M996.5,687.16c-0.18-0.08-0.35-0.17-0.53-0.25c-4.08,6.7-8.15,13.41-12.32,20.27
		c4.11,6.87,8.22,13.76,12.34,20.64c0.17-0.1,0.34-0.2,0.51-0.29C996.5,714.07,996.5,700.62,996.5,687.16z M1004.59,728.14
		c4.01-6.75,7.7-12.88,11.27-19.08c0.36-0.62,0.26-1.79-0.08-2.48c-1.85-3.78-3.83-7.5-5.78-11.22c-1.69-3.21-3.4-6.41-5.41-10.19
		C1004.59,699.78,1004.59,713.61,1004.59,728.14z M1032.1,619.22c-0.16-0.03-0.31-0.06-0.47-0.08c-2.79,6.43-5.67,12.82-8.3,19.31
		c-0.47,1.16-0.37,2.96,0.22,4.06c3.25,6.13,6.73,12.14,10.14,18.19c0.32,0.57,0.72,1.1,1.55,2.35
		C1034.15,647.85,1033.12,633.53,1032.1,619.22z M971.33,605.16c8.05,0,15.52,0,23.46,0c-3.95-7.04-7.72-13.76-11.71-20.89
		C979.11,591.33,975.37,597.98,971.33,605.16z M1009.57,670.15c7.3,0,14.31,0,21.72,0c-4.15-7.38-8.14-14.49-12.29-21.88
		C1015.76,655.78,1012.7,662.89,1009.57,670.15z M1162.69,1416.35c0.01-0.15,0.01-0.29,0.02-0.44
		c-11.03-4.88-22.05-9.75-33.55-14.84c1.69,5.46,3.21,10.35,4.73,15.28C1143.6,1416.35,1153.14,1416.35,1162.69,1416.35z
		 M839.28,1415.9c0.02,0.17,0.04,0.34,0.07,0.51c8.16,0,16.33-0.2,24.48,0.1c3.32,0.12,4.83-0.87,5.55-4.04
		c0.83-3.66,2.09-7.23,3.33-11.37C861.14,1406.22,850.21,1411.06,839.28,1415.9z M1029.94,1180.58c0.01-0.16,0.03-0.31,0.04-0.47
		c-9.77-2.23-19.54-4.46-29.62-6.76c1.14,5.38,2.19,10.31,3.29,15.5C1012.51,1186.06,1021.23,1183.32,1029.94,1180.58z
		 M1018.24,633.19c3.19-7.41,6.13-14.24,9.1-21.15c-7.11,0-13.88,0-20.97,0C1010.36,619.15,1014.18,625.95,1018.24,633.19z
		 M1004.56,663.8c0.15,0,0.3,0,0.45,0c1.82-4.2,3.65-8.39,5.45-12.6c1.44-3.35,4.09-6.78,3.91-10.05c-0.19-3.38-3.11-6.62-4.9-9.89
		c-1.47-2.71-3.03-5.37-4.91-8.68C1004.56,636.88,1004.56,650.34,1004.56,663.8z M972.04,550.89c3.77,6.7,7.31,13,11.06,19.66
		c3.8-6.77,7.33-13.07,11.03-19.66C986.63,550.89,979.56,550.89,972.04,550.89z M1099.3,1229.96c-3.85,4.72-7.51,9.2-11.21,13.73
		c6.67,4.48,13.1,8.81,20.16,13.56C1105.13,1247.75,1102.26,1238.99,1099.3,1229.96z M913.5,1252.03
		c-7.14,4.81-13.66,9.19-20.29,13.66c4.55,3.95,8.93,7.75,13.59,11.8C909.02,1269.07,911.17,1260.89,913.5,1252.03z
		 M1108.76,1265.69c-6.82-4.57-13.29-8.92-20.32-13.63c2.32,8.8,4.46,16.89,6.71,25.41
		C1099.78,1273.45,1104.16,1269.67,1108.76,1265.69z M1121.19,1397.73c-5.82,6.36-11.28,12.32-17,18.57c7.82,0,15.1,0,22.64,0
		C1124.95,1410.13,1123.14,1404.16,1121.19,1397.73z M897.81,1416.33c-5.82-6.33-11.29-12.28-17.06-18.56
		c-1.97,6.47-3.79,12.43-5.66,18.56C882.6,1416.33,889.91,1416.33,897.81,1416.33z M1063.72,1304.74
		c5.48-4.77,10.53-9.16,15.87-13.79c-6.54-3.27-12.69-6.36-19.11-9.57C1061.55,1289.16,1062.59,1296.65,1063.72,1304.74z
		 M1031.29,1454.92c0.32,0.3,0.63,0.61,0.95,0.91c5.84-2.63,9.03-8.41,13.98-12.39c-5.13-4.38-9.89-8.45-14.93-12.76
		C1031.29,1439.2,1031.29,1447.06,1031.29,1454.92z M1026.18,605.2c-3.03-6.62-5.95-13.02-9.09-19.9
		c-3.83,6.84-7.42,13.24-11.14,19.9C1012.89,605.2,1019.37,605.2,1026.18,605.2z M1008.72,550.87c3.06,6.66,5.95,12.98,9,19.63
		c3.14-5.64,6.11-10.86,8.95-16.14c0.51-0.95,0.5-2.19,0.77-3.49C1021.04,550.87,1015.13,550.87,1008.72,550.87z M932.26,1455.13
		c2.66,0.04,9.3-5.67,13.94-11.88c-4.54-3.9-9.09-7.81-13.94-11.99C932.26,1439.53,932.26,1447.21,932.26,1455.13z M994.43,611.97
		c-6.64,0-12.88,0-19.43,0c2.95,6.37,5.79,12.5,8.79,18.99C987.44,624.43,990.86,618.34,994.43,611.97z M940.74,1281.73
		c-6.29,3.16-12.21,6.15-18.38,9.25c5.03,4.34,9.66,8.34,14.59,12.59C938.25,1296.1,939.45,1289.2,940.74,1281.73z M996.02,657.47
		c0.12-0.05,0.24-0.1,0.36-0.15c0-11.41,0-22.81,0-35.08c-3.16,5.6-5.92,10.45-8.61,15.34c-0.27,0.49-0.3,1.34-0.06,1.85
		C990.43,645.46,993.23,651.46,996.02,657.47z M994.32,544.05c-3.21-6.08-6.19-11.72-9.33-17.65c-3.52,6.04-6.82,11.72-10.28,17.65
		C981.45,544.05,987.64,544.05,994.32,544.05z M1054.13,1219.82c-0.12,0.24-0.23,0.48-0.35,0.73c7.74,5.22,15.47,10.45,23.63,15.96
		c-1.52-5.99-2.89-11.37-4.24-16.68C1066.79,1219.82,1060.46,1219.82,1054.13,1219.82z M968.37,595.88c0.13,0.05,0.26,0.1,0.39,0.15
		c3.32-5.9,6.65-11.8,9.91-17.72c0.26-0.46,0.29-1.3,0.04-1.75c-2.54-4.65-5.16-9.25-7.75-13.87c-0.18,0.03-0.36,0.06-0.53,0.09
		C969.74,573.81,969.06,584.84,968.37,595.88z M996.42,560.54c-3.22,5.71-6.08,10.75-8.88,15.81c-0.27,0.49-0.43,1.33-0.19,1.76
		c2.85,5.21,5.79,10.38,9.07,16.21C996.42,582.79,996.42,572.06,996.42,560.54z M1004.62,557.99c0,12.29,0,23.75,0,35.81
		c3-5.33,5.72-10.1,8.34-14.93c0.33-0.6,0.36-1.62,0.09-2.25C1010.41,570.65,1007.68,564.72,1004.62,557.99z M1080.84,1454.97
		c0.29,0.25,0.57,0.51,0.86,0.76c4.34-3.77,8.19-8.09,12.54-12.28c-4.52-3.89-8.83-7.59-13.4-11.53
		C1080.84,1439.99,1080.84,1447.48,1080.84,1454.97z M1084.58,1237.3c4.29-5.21,8.34-9.98,12.18-14.89c0.9-1.15,0.6-2.67-1.35-2.7
		c-5.05-0.07-10.1-0.02-15.42-0.02C1081.53,1225.59,1082.98,1231.16,1084.58,1237.3z M846.72,1443.51
		c-4.46-3.84-8.78-7.56-13.31-11.46c0,7.97,0,15.51,0,23.05c0.23,0.19,0.47,0.38,0.7,0.57
		C838.22,1451.71,842.32,1447.75,846.72,1443.51z M981.9,1432.57c0,7.74,0,15.15,0,22.67c4.15-4.21,8.12-8.23,12.09-12.26
		C990.19,1439.71,986.16,1436.24,981.9,1432.57z M961.86,1427.54c-7.74,0-15.36,0-23.59,0c4.56,3.94,8.69,7.51,12.51,10.81
		C954.55,1434.68,958.14,1431.18,961.86,1427.54z M998.62,1438.16c3.86-3.7,7.45-7.15,11.08-10.63c-7.56,0-15.12,0-23.36,0
		C990.89,1431.47,994.96,1434.99,998.62,1438.16z M1026.12,544.09c-3.37-5.72-6.5-11.05-9.85-16.74
		c-2.64,5.88-5.03,11.19-7.52,16.74C1014.71,544.09,1020.16,544.09,1026.12,544.09z M1164.23,1453.59c0-7.73,0-15.1,0-21.84
		c-3.87,3.69-7.92,7.55-12.03,11.47C1156.17,1446.65,1160.07,1450.01,1164.23,1453.59z M904.82,1443.26
		c3.92,3.38,7.86,6.76,11.9,10.24c0-7.65,0-14.95,0-21.83C912.86,1435.44,908.89,1439.3,904.82,1443.26z M882.83,1433.17
		c0,7.54,0,14.57,0,21.17c3.72-3.73,7.53-7.54,11.38-11.38C890.66,1439.9,886.89,1436.66,882.83,1433.17z M1030.06,597.5
		c0.17-0.06,0.34-0.12,0.51-0.19c-0.75-10.35-1.5-20.7-2.31-31.87c-2.46,4.35-4.51,7.9-6.45,11.5c-0.31,0.57-0.42,1.51-0.16,2.08
		C1024.39,585.21,1027.24,591.35,1030.06,597.5z M862.35,1427.59c-8.01,0-15.61,0-23.8,0c4.57,3.92,8.7,7.47,12.77,10.96
		C855.03,1434.86,858.53,1431.39,862.35,1427.59z M986.26,476.08c-2.97,5.06-5.72,9.75-8.59,14.63c5.9,0,11.27,0,17.12,0
		C991.9,485.75,989.2,481.12,986.26,476.08z M910.11,1427.59c-7.7,0-15.28,0-23.48,0c4.58,3.94,8.71,7.48,12.4,10.64
		C902.88,1434.54,906.43,1431.13,910.11,1427.59z M1037.95,1427.51c4.68,4.02,8.78,7.54,12.41,10.67
		c3.79-3.69,7.37-7.16,10.97-10.67C1053.82,1427.51,1046.26,1427.51,1037.95,1427.51z M1086.07,1427.52
		c4.63,3.98,8.74,7.51,12.34,10.62c3.77-3.64,7.36-7.11,11-10.62C1101.89,1427.52,1094.32,1427.52,1086.07,1427.52z M974.4,506.26
		c-0.18,0.03-0.36,0.06-0.54,0.09c-0.56,9.21-1.12,18.42-1.67,27.63c3.23-4.46,5.93-9.02,8.55-13.61c0.26-0.46,0.32-1.29,0.09-1.75
		C978.73,514.47,976.55,510.37,974.4,506.26z M1130.37,1454.29c3.8-3.7,7.59-7.4,11.47-11.18c-3.67-3.13-7.39-6.3-11.47-9.78
		C1130.37,1440.86,1130.37,1447.7,1130.37,1454.29z M1004.37,1443.12c3.79,3.24,7.45,6.37,11.28,9.66c0-7.18,0-13.93,0-20.89
		C1011.82,1435.7,1008.23,1439.28,1004.37,1443.12z M1146.28,1438.14c3.84-3.7,7.43-7.16,11.1-10.7c-5.64,0-11.28,0.09-16.91-0.05
		c-2-0.05-3.2,0.47-3.53,2.66C1140.15,1432.83,1143.41,1435.65,1146.28,1438.14z M977.4,497.62c2.74,5.16,5.24,9.89,7.94,14.98
		c3.05-5.23,5.81-9.96,8.74-14.98C988.39,497.62,983.15,497.62,977.4,497.62z M1006.67,497.64c3.02,5.15,5.86,10,8.88,15.15
		c2.36-5.23,4.52-10.05,6.82-15.15C1017.03,497.64,1012.1,497.64,1006.67,497.64z M1012.84,465.65c2.66-4.55,5.21-8.92,7.9-13.52
		c-5.74,0-10.97,0-16.76,0C1007.06,456.83,1009.86,461.11,1012.84,465.65z M1004.56,536.11c0.14,0,0.27,0,0.41,0
		c2.09-4.6,4.22-9.18,6.24-13.8c0.38-0.87,0.76-2.16,0.39-2.85c-2.09-3.89-4.42-7.65-7.04-12.09
		C1004.56,517.48,1004.56,526.8,1004.56,536.11z M996.49,507.89c-0.17-0.07-0.33-0.14-0.5-0.21c-1.17,1.99-2.09,4.18-3.55,5.92
		c-3.43,4.08-3.4,7.95-0.3,12.2c1.57,2.16,2.63,4.7,3.92,7.07c0.14-0.08,0.29-0.17,0.43-0.25
		C996.49,524.37,996.49,516.13,996.49,507.89z M867.25,1432.74c-3.67,3.61-7.12,7.01-10.61,10.46c3.46,2.95,6.89,5.88,10.61,9.06
		C867.25,1445.45,867.25,1439.19,867.25,1432.74z M1114.81,1433.28c-3.41,3.31-6.85,6.65-10.38,10.07c3.32,2.85,6.68,5.73,10.38,8.9
		C1114.81,1445.47,1114.81,1439.22,1114.81,1433.28z M956.63,1443.4c3.01,2.58,6.23,5.34,9.79,8.39c0-6.45,0-12.35,0-18.22
		C963.15,1436.85,959.95,1440.06,956.63,1443.4z M924.46,1236.57c6.45-4.36,12.29-8.31,18.78-12.7c-5.73,0-10.5,0-15.47,0
		C926.72,1227.89,925.68,1231.9,924.46,1236.57z M920.84,1223.99c-4.89,0-9.42,0-14.4,0c3.75,4.59,7.21,8.83,10.9,13.35
		C918.56,1232.7,919.69,1228.4,920.84,1223.99z M1005.97,490.66c5.34,0,10.21,0,15.45,0c-2.83-4.26-5.45-8.2-8.21-12.37
		C1010.77,482.46,1008.47,486.4,1005.97,490.66z M1018.33,445.16c-2.53-4.24-4.82-8.1-7.27-12.21c-2.33,4.27-4.45,8.14-6.67,12.21
		C1009.18,445.16,1013.5,445.16,1018.33,445.16z M1056.1,1443.14c3.09,2.66,6.07,5.22,9.25,7.95c0-5.99,0-11.52,0-16.83
		C1062.32,1437.16,1059.29,1440.07,1056.1,1443.14z M996.47,459.92c-0.17-0.06-0.34-0.12-0.51-0.18c-1.76,2.96-3.54,5.92-5.26,8.9
		c-0.21,0.36-0.39,0.99-0.22,1.29c1.82,3.24,3.72,6.43,5.99,10.33C996.47,472.84,996.47,466.38,996.47,459.92z M977.24,460.7
		c-0.21,0-0.43,0-0.64,0c-0.38,6.48-0.75,12.97-1.13,19.45c2.47-3.12,4.46-6.35,6.29-9.67c0.31-0.56,0.17-1.63-0.17-2.26
		C980.23,465.67,978.71,463.2,977.24,460.7z M986.3,462.9c2.25-3.8,4.3-7.28,6.39-10.83c-4.33,0-8.36,0-12.74,0
		C982.13,455.77,984.11,459.16,986.3,462.9z M992.75,1455.12c5.05,0,9.85,0,15.35,0c-3.1-2.67-5.74-4.94-8.26-7.11
		C997.45,1450.41,995.18,1452.69,992.75,1455.12z M944.39,1455.07c5.33,0,10.19,0,15.56,0c-3.07-2.63-5.74-4.91-7.98-6.82
		C949.38,1450.58,947.04,1452.69,944.39,1455.07z M979.18,418.98c-0.44,7.12-0.83,13.43-1.23,19.75c2.19-2.82,3.95-5.68,5.61-8.6
		c0.3-0.53,0.38-1.44,0.13-1.98C982.38,425.3,980.93,422.51,979.18,418.98z M1107.89,1455.17c-3.2-2.75-5.86-5.05-7.82-6.73
		c-2.71,2.32-5.15,4.41-7.86,6.73C1097.49,1455.17,1102.33,1455.17,1107.89,1455.17z M900.71,1448.55
		c-2.67,2.48-5.01,4.65-7.01,6.51c4.34,0,9.14,0,14.5,0C905.19,1452.44,902.59,1450.18,900.71,1448.55z M852.26,1448.24
		c-2.6,2.41-4.95,4.59-7.35,6.82c4.96,0,9.82,0,15.21,0C857.12,1452.45,854.53,1450.2,852.26,1448.24z M1059.85,1455.21
		c-3.26-2.8-5.91-5.08-7.86-6.75c-2.64,2.39-5.02,4.53-7.48,6.75C1049.39,1455.21,1054.15,1455.21,1059.85,1455.21z
		 M1140.18,1455.05c5.19,0,10.02,0,15.44,0c-3.01-2.61-5.65-4.89-8.15-7.05C1145.03,1450.36,1142.75,1452.56,1140.18,1455.05z
		 M1025.2,529.26c0.18-0.02,0.36-0.05,0.54-0.07c-0.43-6.19-0.86-12.37-1.29-18.56c-1.82,2.75-3.17,5.57-4.39,8.45
		c-0.2,0.48-0.04,1.28,0.24,1.78C1021.89,523.69,1023.56,526.47,1025.2,529.26z M987.78,436.17c-1.9,3.21-3.55,5.99-5.28,8.89
		c3.35,0,6.39,0,9.69,0C990.72,442.1,989.36,439.34,987.78,436.17z M996.47,422.56c-0.16-0.07-0.33-0.13-0.49-0.2
		c-1.1,1.83-2.23,3.64-3.27,5.5c-0.34,0.61-0.77,1.53-0.54,2.04c1.19,2.68,2.57,5.27,3.88,7.9c0.14-0.06,0.28-0.12,0.42-0.18
		C996.47,432.6,996.47,427.58,996.47,422.56z M1021.34,464.48c-1.69,2.87-3.03,5.14-4.36,7.38c1.64,2.47,3.21,4.81,4.77,7.16
		c0.16-0.05,0.33-0.11,0.49-0.16C1021.96,474.3,1021.68,469.75,1021.34,464.48z M1004.51,479.47c5.03-7.08,4.97-9.32,0-13.45
		C1004.51,470.32,1004.51,474.61,1004.51,479.47z M1019.33,433.32c-0.29-4.87-0.54-8.97-0.81-13.39
		C1014.24,425.72,1014.26,426.2,1019.33,433.32z M992.21,415.56c-2.58,0-4.75,0-7.29,0c1.19,2.35,2.21,4.39,3.36,6.67
		C989.67,419.87,990.87,417.82,992.21,415.56z M1004.53,430.42c3.03-4.36,3.03-4.55,0-7.71
		C1004.53,425.2,1004.53,427.59,1004.53,430.42z M1010.91,419.46c0.8-1.55,1.4-2.72,2.06-3.98c-1.65,0-2.89,0-4.45,0
		C1009.37,416.89,1010.06,418.04,1010.91,419.46z"/>
	<path class="st1" d="M1193.78,1799.96c0-0.19,0-0.38,0-0.57c8.65,0,17.31,0.21,25.95-0.08c5.22-0.17,10.41,0.28,15.62,0.12
		c5.45-0.17,10.91-0.03,16.36-0.03c7.19,0,14.39-0.01,21.58-0.01c18.02,0,36.04,0.11,54.05-0.08c3.32-0.04,6.63,0.26,9.95,0.12
		c3.47-0.15,6.96-0.03,10.44-0.03c3.57,0,7.15,0.07,10.72-0.02c2.37-0.06,4.73-0.36,7.09-0.55c0.18,0,0.36,0,0.54,0.01
		c-0.19,0.38-0.31,1.01-0.58,1.08c-0.62,0.16-1.3,0.05-1.96,0.05C1306.96,1799.96,1250.37,1799.96,1193.78,1799.96z"/>
	<path class="st1" d="M806.13,1799.38c0.03,0.19,0.06,0.39,0.08,0.58c-57.44,0-114.87,0-172.31,0c0-0.57,0-1.13,0-1.69
		c0.19,0.01,0.39,0.03,0.58,0.04c0.92,0.37,1.83,1.04,2.75,1.05c8.37,0.08,16.75,0.05,25.12,0.05c25.26-0.01,50.53-0.01,75.79-0.02
		c13.08,0,26.16-0.01,39.23-0.01c4.28,0,8.55,0.01,12.83,0.01C795.52,1799.39,800.83,1799.38,806.13,1799.38z"/>
	<path class="st1" d="M906.44,1223.99"/>
	<path class="st1" d="M908.51,1193.8c-0.08,0.11-0.16,0.23-0.24,0.34c-0.06-0.06-0.18-0.16-0.17-0.17c0.08-0.12,0.18-0.22,0.27-0.33
		C908.37,1193.64,908.51,1193.8,908.51,1193.8z"/>
</g>
</svg>
