<?xml version="1.0" encoding="utf-8"?>
<!-- Generator: Adobe Illustrator 23.0.0, SVG Export Plug-In . SVG Version: 6.00 Build 0)  -->
<svg version="1.1" id="Camada_1" xmlns="http://www.w3.org/2000/svg" xmlns:xlink="http://www.w3.org/1999/xlink" x="0px" y="0px"
	 viewBox="0 0 2000 2000" style="enable-background:new 0 0 2000 2000;" xml:space="preserve">
<style type="text/css">
	.st0{fill:#4A0072;}
</style>
<g>
	<path class="st0" d="M1450,82.5c-174,0-341,81-450,209c-109-128-276-209-450-209c-308,0-550,242-550,550c0,378,340,686,855,1154
		l145,131l145-132c515-467,855-775,855-1153C2000,324.5,1758,82.5,1450,82.5z M1010,1637.5l-10,10l-10-10c-476-431-790-716-790-1005
		c0-200,150-350,350-350c154,0,304,99,357,236h187c52-137,202-236,356-236c200,0,350,150,350,350
		C1800,921.5,1486,1206.5,1010,1637.5z"/>
</g>
</svg>
