<?xml version="1.0" encoding="utf-8"?>
<!-- Generator: Adobe Illustrator 23.0.0, SVG Export Plug-In . SVG Version: 6.00 Build 0)  -->
<svg version="1.1" id="Camada_1" xmlns="http://www.w3.org/2000/svg" xmlns:xlink="http://www.w3.org/1999/xlink" x="0px" y="0px"
	 viewBox="0 0 2000 2000" style="enable-background:new 0 0 2000 2000;" xml:space="preserve">
<style type="text/css">
	.st0{fill:#4A0072;}
</style>
<title>icone_perfil</title>
<path class="st0" d="M1000,0C448,0,0,448,0,1000s448,1000,1000,1000s1000-448,1000-1000S1552,0,1000,0z M1000,300
	c165.7,0,300,134.3,300,300s-134.3,300-300,300S700,765.7,700,600c-0.2-165.5,133.7-299.8,299.2-300C999.5,300,999.7,300,1000,300z
	 M1000,1720c-250,0-471-128-600-322c3-199,400-308,600-308c199,0,597,109,600,308C1471,1592,1250,1720,1000,1720z"/>
</svg>
