<?xml version="1.0" encoding="utf-8"?>
<!-- Generator: Adobe Illustrator 23.0.0, SVG Export Plug-In . SVG Version: 6.00 Build 0)  -->
<svg version="1.1" id="Camada_1" xmlns="http://www.w3.org/2000/svg" xmlns:xlink="http://www.w3.org/1999/xlink" x="0px" y="0px"
	 viewBox="0 0 2000 2000" style="enable-background:new 0 0 2000 2000;" xml:space="preserve">
<style type="text/css">
	.st0{fill:#4A0072;}
	.st1{fill:#FFFFFF;}
</style>
<g>
	<circle class="st0" cx="1000" cy="1000" r="1000"/>
</g>
<g>
	<g>
		<path class="st1" d="M1212.89,475.83c-9.87-10.15-23.17-15.77-37.16-15.77h-31.81l276.04,276.04v-24.82
			c0-14.26-5.48-28.11-15.36-38.12L1212.89,475.83z"/>
		<path class="st1" d="M1143.91,711.96c0,13.3,10.7,24,24,24h252.04l-276.04-275.9V711.96z"/>
		<path class="st1" d="M1243.19,417.55c-11.24-11.24-26.47-17.55-42.37-17.55H580.05c-33.18,0-60.06,26.88-60.06,60.06v1079.88
			c0,33.18,26.88,60.06,60.06,60.06h839.9c33.18,0,60.06-26.88,60.06-60.06V679.05c0-15.91-6.31-31.13-17.55-42.37L1243.19,417.55z
			 M1419.95,735.96v749.95c0,29.76-23.45,54.03-52.52,54.03h-735c-28.93,0-52.52-24.13-52.52-54.03V513.95
			c0-29.76,23.45-54.03,52.52-54.03h511.48l0,0l0,0h31.81c13.99,0,27.29,5.76,37.16,15.77l191.57,197.33
			c9.87,10.15,15.36,23.86,15.36,38.12v24.82H1419.95z"/>
	</g>
	<g>
		<rect x="622.83" y="1334.52" class="st1" width="754.2" height="68.56"/>
		<rect x="622.83" y="1104.15" class="st1" width="754.2" height="68.56"/>
		<rect x="622.83" y="873.77" class="st1" width="754.2" height="68.56"/>
	</g>
</g>
</svg>
