<?xml version="1.0" encoding="utf-8"?>
<!-- Generator: Adobe Illustrator 23.0.0, SVG Export Plug-In . SVG Version: 6.00 Build 0)  -->
<svg version="1.1" id="Camada_1" xmlns="http://www.w3.org/2000/svg" xmlns:xlink="http://www.w3.org/1999/xlink" x="0px" y="0px"
	 viewBox="0 0 2000 2000" style="enable-background:new 0 0 2000 2000;" xml:space="preserve">
<style type="text/css">
	.st0{fill:#5C1889;}
	.st1{fill:#4A0072;}
	.st2{fill:#FFFFFF;}
</style>
<g>
	<g>
		<g>
			<polygon class="st0" points="600,0 0,218.4 0,2000 7,2000 600,1784.2 			"/>
		</g>
		<g>
			<polygon class="st0" points="2000,0 1400,218.4 1400,2000 1407,2000 2000,1784.2 			"/>
		</g>
		<g>
			<polygon class="st1" points="600,0 1400,218.4 1400,2000 1390.6,2000 600,1784.2 			"/>
		</g>
	</g>
	<g>
		<g>
			<path class="st0" d="M1105,790V606.3H732c-21.1,0-38.3,17.6-38.3,39.4v708.8c0,21.7,17.1,39.4,38.3,39.4H1268
				c21.1,0,38.3-17.6,38.3-39.4V807.5h-183.8C1112.8,807.5,1105,799.7,1105,790z"/>
			<path class="st2" d="M1155.3,617.8c-7.2-7.4-16.9-11.5-27.1-11.5H1105l201.3,201.3v-18.1c0-10.4-4-20.5-11.2-27.8L1155.3,617.8z"
				/>
			<path class="st2" d="M1105,790c0,9.7,7.8,17.5,17.5,17.5h183.8L1105,606.3V790z"/>
			<path class="st2" d="M1177.4,575.3c-8.2-8.2-19.3-12.8-30.9-12.8H693.8c-24.2,0-43.8,19.6-43.8,43.8v787.5
				c0,24.2,19.6,43.8,43.8,43.8h612.5c24.2,0,43.8-19.6,43.8-43.8V766c0-11.6-4.6-22.7-12.8-30.9L1177.4,575.3z M1306.3,807.5v546.9
				c0,21.7-17.1,39.4-38.3,39.4H732c-21.1,0-38.3-17.6-38.3-39.4V645.6c0-21.7,17.1-39.4,38.3-39.4h373l0,0l0,0h23.2
				c10.2,0,19.9,4.2,27.1,11.5L1295,761.6c7.2,7.4,11.2,17.4,11.2,27.8V807.5z"/>
		</g>
		<g>
			<rect x="725" y="1244" class="st2" width="550" height="50"/>
			<rect x="725" y="1076" class="st2" width="550" height="50"/>
			<rect x="725" y="908" class="st2" width="550" height="50"/>
		</g>
	</g>
</g>
</svg>
